<svg width="40" height="40" viewBox="0 0 40 40" fill="none" xmlns="http://www.w3.org/2000/svg">
<g clip-path="url(#clip0_816_257)">
<path d="M19.9833 3.33333C10.7833 3.33333 3.31668 10.8 3.31668 20C3.31668 29.2 10.7833 36.6667 19.9833 36.6667C29.1833 36.6667 36.65 29.2 36.65 20C36.65 10.8 29.1833 3.33333 19.9833 3.33333ZM26 13.9C27.7833 13.9 29.2167 15.3333 29.2167 17.1167C29.2167 18.9 27.7833 20.3333 26 20.3333C24.2167 20.3333 22.7833 18.9 22.7833 17.1167C22.7667 15.3333 24.2167 13.9 26 13.9ZM16 11.2667C18.1667 11.2667 19.9333 13.0333 19.9333 15.2C19.9333 17.3667 18.1667 19.1333 16 19.1333C13.8333 19.1333 12.0667 17.3667 12.0667 15.2C12.0667 13.0167 13.8167 11.2667 16 11.2667ZM16 26.4833V32.7333C12 31.4833 8.83335 28.4 7.43335 24.4667C9.18335 22.6 13.55 21.65 16 21.65C16.8833 21.65 18 21.7833 19.1667 22.0167C16.4333 23.4667 16 25.3833 16 26.4833ZM19.9833 33.3333C19.5333 33.3333 19.1 33.3167 18.6667 33.2667V26.4833C18.6667 24.1167 23.5667 22.9333 26 22.9333C27.7833 22.9333 30.8667 23.5833 32.4 24.85C30.45 29.8 25.6333 33.3333 19.9833 33.3333Z" fill="black"/>
</g>
<defs>
<clipPath id="clip0_816_257">
<rect width="40" height="40" fill="white"/>
</clipPath>
</defs>
</svg>
